<svg width="36" height="35" viewBox="0 0 36 35" fill="none" xmlns="http://www.w3.org/2000/svg">
<g id="maki:arrow">
<path id="Vector" d="M19.8695 5.69283C20.3115 5.24921 20.911 5 21.536 5C22.1611 5 22.7605 5.24921 23.2025 5.69283L33.8099 16.3413C34.2518 16.785 34.5 17.3868 34.5 18.0143C34.5 18.6418 34.2518 19.2435 33.8099 19.6873L23.2025 30.3357C22.758 30.7668 22.1625 31.0053 21.5445 30.9999C20.9265 30.9945 20.3352 30.7457 19.8982 30.3069C19.4612 29.8682 19.2133 29.2747 19.2079 28.6542C19.2025 28.0338 19.4401 27.4361 19.8695 26.9898L26.2504 20.3806H3.85718C3.23202 20.3806 2.63246 20.1313 2.1904 19.6875C1.74834 19.2438 1.5 18.6419 1.5 18.0143C1.5 17.3867 1.74834 16.7848 2.1904 16.341C2.63246 15.8973 3.23202 15.648 3.85718 15.648H26.2504L19.8695 9.03881C19.4276 8.59506 19.1793 7.99329 19.1793 7.36582C19.1793 6.73836 19.4276 6.13658 19.8695 5.69283Z" fill="black"/>
</g>
</svg>
