<svg width="43" height="43" viewBox="0 0 43 43" fill="none" xmlns="http://www.w3.org/2000/svg">
<g id="icon-park-outline:delivery">
<g id="Group">
<path id="Vector" d="M18.2222 28.9167L23.5556 30.75C23.5556 30.75 36.8889 28 38.6667 28C40.4444 28 40.4444 29.8333 38.6667 31.6667C36.8889 33.5 30.6667 39 25.3333 39C20 39 16.4444 36.25 12.8889 36.25H4" stroke="black" stroke-width="2.14701" stroke-linecap="round" stroke-linejoin="round"/>
<path id="Vector_2" d="M4 25.6667C5.8 23.8889 9.4 21.2222 13 21.2222C16.6 21.2222 25.15 24.7778 26.5 26.5556C27.85 28.3333 23.8 31 23.8 31M14.8 15.8889V8.77778C14.8 8.30628 14.9896 7.8541 15.3272 7.5207C15.6648 7.1873 16.1226 7 16.6 7H38.2C38.6774 7 39.1352 7.1873 39.4728 7.5207C39.8104 7.8541 40 8.30628 40 8.77778V23" stroke="black" stroke-width="2.14701" stroke-linecap="round" stroke-linejoin="round"/>
<path id="Vector_3" d="M23 7H32V15H23V7Z" stroke="black" stroke-width="2.14701" stroke-linecap="round" stroke-linejoin="round"/>
</g>
</g>
</svg>
