<svg width="43" height="43" viewBox="0 0 43 43" fill="none" xmlns="http://www.w3.org/2000/svg">
<g id="fluent:person-call-24-regular">
<path id="Vector" d="M30.7904 28.4245C30.3423 27.5975 30.1968 26.6355 30.3797 25.7096H10.9974C9.93704 25.7101 8.9203 26.1392 8.17069 26.9025C7.42109 27.6658 7 28.7008 7 29.7801V30.8262C7 32.4406 7.56546 34.0044 8.59681 35.2333C11.3815 38.5526 15.6242 40.1924 21.2184 40.1924C21.9119 40.1924 22.5823 40.1652 23.2331 40.1145C22.9236 39.236 22.9186 38.2761 23.2189 37.3943C22.5787 37.4486 21.9137 37.4757 21.2184 37.4757C16.3497 37.4757 12.8538 36.1255 10.6257 33.4704C10.0062 32.733 9.66565 31.7947 9.66551 30.8244V29.7801C9.66551 29.4201 9.80602 29.0748 10.0561 28.8202C10.3062 28.5657 10.6454 28.4227 10.9992 28.4227H30.7904V28.4245ZM21.2184 4C22.386 4 23.5421 4.23407 24.6208 4.68885C25.6995 5.14363 26.6797 5.8102 27.5053 6.65052C28.3309 7.49084 28.9858 8.48845 29.4326 9.58638C29.8794 10.6843 30.1094 11.8611 30.1094 13.0494C30.1094 14.2378 29.8794 15.4146 29.4326 16.5125C28.9858 17.6105 28.3309 18.6081 27.5053 19.4484C26.6797 20.2887 25.6995 20.9553 24.6208 21.4101C23.5421 21.8648 22.386 22.0989 21.2184 22.0989C18.8604 22.0989 16.5989 21.1455 14.9316 19.4484C13.2642 17.7513 12.3275 15.4495 12.3275 13.0494C12.3275 10.6494 13.2642 8.34762 14.9316 6.65052C16.5989 4.95342 18.8604 4 21.2184 4ZM21.2184 6.71484C20.4011 6.71483 19.5918 6.87868 18.8367 7.19703C18.0816 7.51537 17.3955 7.98198 16.8176 8.5702C16.2397 9.15842 15.7813 9.85675 15.4685 10.6253C15.1557 11.3938 14.9947 12.2176 14.9947 13.0494C14.9947 13.8813 15.1557 14.7051 15.4685 15.4736C15.7813 16.2422 16.2397 16.9405 16.8176 17.5287C17.3955 18.1169 18.0816 18.5835 18.8367 18.9019C19.5918 19.2202 20.4011 19.3841 21.2184 19.3841C22.869 19.3841 24.452 18.7167 25.6192 17.5287C26.7864 16.3407 27.4421 14.7295 27.4421 13.0494C27.4421 11.3694 26.7864 9.75817 25.6192 8.5702C24.452 7.38223 22.869 6.71484 21.2184 6.71484ZM32.229 25.7006L33.0754 23.5197C33.5057 22.4084 34.7113 21.831 35.828 22.2021L36.5944 22.4573C37.8818 22.8862 38.9523 23.916 38.995 25.297C39.1728 30.9257 34.5922 39.0214 29.7253 41.6855C28.5286 42.3407 27.1149 41.9081 26.1067 40.9779L25.5074 40.4258C25.0884 40.0398 24.8292 39.506 24.7823 38.9327C24.7355 38.3594 24.9044 37.7894 25.2549 37.3382L26.6775 35.5102C27.1931 34.846 28.0413 34.5509 28.8469 34.75L31.1443 35.3165C33.1056 33.9953 34.1565 32.1384 34.2988 29.7439L32.6682 27.9991C32.3874 27.6984 32.197 27.3223 32.1191 26.9151C32.0413 26.5079 32.0794 26.0865 32.229 25.7006Z" fill="black"/>
</g>
</svg>
