<svg width="43" height="43" viewBox="0 0 43 43" fill="none" xmlns="http://www.w3.org/2000/svg">
<g id="iconamoon:delivery-free-light">
<g id="Group">
<path id="Vector" d="M3.36047 12.3549V11C2.99965 11 2.65361 11.1427 2.39847 11.3968C2.14333 11.6509 2 11.9956 2 12.3549H3.36047ZM23.314 12.3549H24.6744C24.6744 11.9956 24.5311 11.6509 24.2759 11.3968C24.0208 11.1427 23.6748 11 23.314 11V12.3549ZM23.314 15.9679V14.613C22.9531 14.613 22.6071 14.7558 22.352 15.0099C22.0968 15.264 21.9535 15.6086 21.9535 15.9679H23.314ZM3.36047 13.7098H23.314V11H3.36047V13.7098ZM21.9535 12.3549V34.0331H24.6744V12.3549H21.9535ZM4.72093 30.4201V12.3549H2V30.4201H4.72093ZM23.314 17.3228H32.3837V14.613H23.314V17.3228ZM38.2791 23.194V30.4201H41V23.194H38.2791ZM24.6744 34.0331V15.9679H21.9535V34.0331H24.6744ZM33.9873 35.6301C33.7767 35.8398 33.5267 36.0062 33.2516 36.1198C32.9764 36.2333 32.6815 36.2917 32.3837 36.2917C32.0859 36.2917 31.791 36.2333 31.5159 36.1198C31.2407 36.0062 30.9907 35.8398 30.7802 35.6301L28.8574 37.545C29.7929 38.4766 31.0617 39 32.3846 39C33.7076 39 34.9764 38.4766 35.9119 37.545L33.9873 35.6301ZM30.7802 32.4362C30.9907 32.2264 31.2407 32.06 31.5159 31.9465C31.791 31.833 32.0859 31.7746 32.3837 31.7746C32.6815 31.7746 32.9764 31.833 33.2516 31.9465C33.5267 32.06 33.7767 32.2264 33.9873 32.4362L35.91 30.5213C34.9746 29.5896 33.7058 29.0663 32.3828 29.0663C31.0599 29.0663 29.7911 29.5896 28.8556 30.5213L30.7802 32.4362ZM12.2198 35.6301C12.0093 35.8398 11.7593 36.0062 11.4841 36.1198C11.209 36.2333 10.9141 36.2917 10.6163 36.2917C10.3185 36.2917 10.0236 36.2333 9.74843 36.1198C9.47329 36.0062 9.2233 35.8398 9.01274 35.6301L7.08995 37.545C8.02545 38.4766 9.29423 39 10.6172 39C11.9401 39 13.2089 38.4766 14.1444 37.545L12.2198 35.6301ZM9.01274 32.4362C9.2233 32.2264 9.47329 32.06 9.74843 31.9465C10.0236 31.833 10.3185 31.7746 10.6163 31.7746C10.9141 31.7746 11.209 31.833 11.4841 31.9465C11.7593 32.06 12.0093 32.2264 12.2198 32.4362L14.1426 30.5213C13.2071 29.5896 11.9383 29.0663 10.6154 29.0663C9.29241 29.0663 8.02363 29.5896 7.08814 30.5213L9.01274 32.4362ZM33.9873 32.4362C34.4299 32.877 34.6512 33.4532 34.6512 34.0331H37.3721C37.3721 32.7631 36.8841 31.4896 35.9119 30.5195L33.9873 32.4362ZM34.6512 34.0331C34.6512 34.613 34.4299 35.1893 33.9873 35.6301L35.9119 37.545C36.3757 37.0843 36.7418 36.5369 36.9927 35.9343C37.2436 35.3316 37.3725 34.6855 37.3721 34.0331H34.6512ZM28.7558 32.6782H23.314V35.388H28.7558V32.6782ZM30.7802 35.6301C30.5692 35.4207 30.4019 35.1718 30.2879 34.8977C30.174 34.6236 30.1156 34.3298 30.1163 34.0331H27.3953C27.3953 35.3031 27.8833 36.5767 28.8556 37.5468L30.7802 35.6301ZM30.1163 34.0331C30.1163 33.4532 30.3376 32.877 30.7802 32.4362L28.8556 30.5213C28.3917 30.982 28.0256 31.5293 27.7747 32.132C27.5238 32.7347 27.3949 33.3807 27.3953 34.0331H30.1163ZM9.01274 35.6301C8.80172 35.4207 8.63441 35.1718 8.52046 34.8977C8.40652 34.6236 8.34819 34.3298 8.34884 34.0331H5.62791C5.62791 35.3031 6.11586 36.5767 7.08814 37.5468L9.01274 35.6301ZM8.34884 34.0331C8.34884 33.4532 8.57014 32.877 9.01274 32.4362L7.08995 30.5213C6.6262 30.982 6.25833 31.5294 6.00744 32.1321C5.75655 32.7347 5.62757 33.3807 5.62791 34.0331H8.34884ZM23.314 32.6782H14.2442V35.388H23.314V32.6782ZM12.2198 32.4362C12.6624 32.877 12.8837 33.4532 12.8837 34.0331H15.6047C15.6047 32.7631 15.1167 31.4896 14.1444 30.5195L12.2198 32.4362ZM12.8837 34.0331C12.8837 34.613 12.6624 35.1893 12.2198 35.6301L14.1426 37.545C14.6064 37.0842 14.9742 36.5368 15.2251 35.9342C15.476 35.3316 15.605 34.6855 15.6047 34.0331H12.8837ZM38.2791 30.4201C38.2791 31.6666 37.2633 32.6782 36.0116 32.6782V35.388C37.3346 35.388 38.6034 34.8646 39.5389 33.9329C40.4744 33.0013 41 31.7377 41 30.4201H38.2791ZM32.3837 17.3228C33.9473 17.3228 35.4468 17.9414 36.5524 19.0425C37.658 20.1435 38.2791 21.6369 38.2791 23.194H41C41 20.9182 40.0922 18.7356 38.4763 17.1263C36.8605 15.5171 34.6689 14.613 32.3837 14.613V17.3228ZM2 30.4201C2 31.7377 2.52556 33.0013 3.46106 33.9329C4.39656 34.8646 5.66537 35.388 6.98837 35.388V32.6782C5.73674 32.6782 4.72093 31.6666 4.72093 30.4201H2Z" fill="black"/>
<path id="Vector_2" d="M13.5 10.25C13.5 8.85761 12.9074 7.52226 11.8525 6.53769C10.7976 5.55312 9.36684 5 7.875 5C7.37772 5 6.90081 5.18437 6.54917 5.51256C6.19754 5.84075 6 6.28587 6 6.75C6 8.14239 6.59263 9.47774 7.64752 10.4623C8.70242 11.4469 10.1332 12 11.625 12H13.5M13.5 10.25V12M13.5 10.25C13.5 8.85761 14.0926 7.52226 15.1475 6.53769C16.2024 5.55312 17.6332 5 19.125 5C19.6223 5 20.0992 5.18437 20.4508 5.51256C20.8025 5.84075 21 6.28587 21 6.75C21 8.14239 20.4074 9.47774 19.3525 10.4623C18.2976 11.4469 16.8668 12 15.375 12H13.5" stroke="black" stroke-width="2.14701" stroke-linejoin="round"/>
</g>
</g>
</svg>
